<svg xmlns="http://www.w3.org/2000/svg" viewBox="0 0 27.53 41.56"><defs><style>.cls-1{fill:#42338b;}.cls-2{fill:#fff;}.cls-3{fill:#e0b434;}</style></defs><title>Recurso 9</title><g id="Capa_2" data-name="Capa 2"><g id="Capa_1-2" data-name="Capa 1"><path class="cls-1" d="M13.91,41.49l0,0,0,0a0,0,0,0,0,.06,0c.13-.15.53-.64,1.11-1.41l1.75-2.4c.6-.84,1.26-1.79,1.94-2.83.51-.76,1-1.58,1.56-2.42,3.51-5.67,7.15-13,7.15-18.92A13.55,13.55,0,0,0,14,0h-.43A13.55,13.55,0,0,0,0,13.55C0,19.49,3.64,26.8,7.15,32.47c.53.84,1,1.66,1.56,2.42.68,1,1.34,2,1.94,2.83l1.75,2.4c.58.77,1,1.26,1.11,1.41a0,0,0,0,0,.06,0l0,0,0,0Z"/><path class="cls-2" d="M17.89,20.12a4.15,4.15,0,0,1-1.5.67V22H14.2V21H13.07v1H10.88V19.08H15a2.51,2.51,0,0,0,1.5-.38A1.33,1.33,0,0,0,17,17.57a1.37,1.37,0,0,0-.46-1.11,2.18,2.18,0,0,0-1.36-.39H10.88v-2h4A5,5,0,0,1,18,15a3.09,3.09,0,0,1,1.05,2.55A3,3,0,0,1,17.89,20.12Z"/><rect class="cls-3" x="9.89" y="8.2" width="0.49" height="13.78"/><path class="cls-3" d="M18,15l.05,0a3,3,0,0,0,1-2.45c0-.12,0-.23,0-.34H16.92a1.45,1.45,0,0,1,0,.37,1.33,1.33,0,0,1-.51,1.13,2.37,2.37,0,0,1-1.34.37A4.86,4.86,0,0,1,18,15Z"/><path class="cls-2" d="M16.45,11.48a1.16,1.16,0,0,1,.47.76H19a2.89,2.89,0,0,0-1.14-2.18,4.15,4.15,0,0,0-1.5-.67V8.19H14.2v1H13.07v-1H10.88V11.1H15A2.51,2.51,0,0,1,16.45,11.48Z"/></g></g></svg>